<?xml version="1.0" standalone="no"?>
<!DOCTYPE svg PUBLIC "-//W3C//DTD SVG 20010904//EN"
 "http://www.w3.org/TR/2001/REC-SVG-20010904/DTD/svg10.dtd">
<svg version="1.0" xmlns="http://www.w3.org/2000/svg"
 width="726.000000pt" height="726.000000pt" viewBox="0 0 726.000000 726.000000"
 preserveAspectRatio="xMidYMid meet">
<metadata>
Created by potrace 1.14, written by Peter Selinger 2001-2017
</metadata>
<g transform="translate(0.000000,726.000000) scale(0.100000,-0.100000)"
fill="#000000" stroke="none">
<path d="M875 5679 c-60 -28 -153 -70 -205 -94 -52 -24 -135 -62 -185 -85 -49
-23 -126 -57 -170 -76 -86 -38 -105 -51 -147 -102 -38 -45 -47 -88 -53 -238
-9 -255 -22 -606 -30 -854 -3 -96 -8 -224 -10 -285 -2 -60 -7 -186 -10 -280
-3 -93 -8 -224 -10 -290 -3 -66 -7 -192 -10 -280 -3 -88 -7 -218 -10 -290 -2
-71 -7 -197 -10 -280 -3 -82 -7 -211 -10 -285 -18 -488 -17 -496 54 -567 70
-72 95 -77 416 -88 83 -3 200 -7 260 -10 61 -2 204 -7 320 -10 116 -3 284 -8
375 -10 172 -5 574 -12 1180 -21 368 -5 2120 -7 2830 -4 493 2 483 0 581 126
25 32 59 66 77 75 29 15 37 15 119 -3 48 -11 109 -18 134 -15 26 2 113 30 195
62 172 68 180 74 302 254 l77 114 125 49 c145 57 184 89 195 160 10 65 -10
102 -127 236 -135 153 -133 151 -203 204 -78 59 -82 64 -89 120 -10 73 -33
116 -92 171 l-54 51 0 62 c0 58 3 65 36 101 76 80 96 164 63 268 -10 33 -19
68 -19 78 0 10 33 51 73 90 51 51 93 106 142 190 39 64 103 172 143 239 44 76
72 133 72 151 0 46 -28 94 -65 111 -18 9 -73 34 -122 57 -72 33 -99 52 -150
107 -70 75 -71 77 -77 237 -4 121 -16 162 -64 216 -33 38 -62 54 -157 90 -50
19 -76 39 -150 115 -75 77 -98 94 -141 107 -28 8 -66 13 -85 12 -76 -7 -424
-17 -764 -21 -429 -6 -2426 -5 -3305 1 -344 2 -675 4 -737 4 -101 1 -114 3
-138 24 -24 21 -26 28 -27 117 -1 133 -30 194 -105 226 -61 26 -119 17 -238
-37z m172 -218 c1 -77 6 -102 27 -146 34 -69 94 -115 171 -131 57 -12 3543
-20 4230 -10 326 5 638 14 710 20 39 4 42 1 130 -90 90 -93 107 -104 227 -148
25 -9 52 -23 58 -31 6 -8 13 -56 16 -107 12 -230 12 -232 141 -363 76 -79 98
-95 162 -120 40 -17 75 -35 77 -41 3 -5 -46 -95 -108 -199 -89 -149 -126 -202
-177 -250 -102 -97 -129 -177 -97 -291 27 -95 27 -92 -16 -142 -67 -77 -81
-119 -76 -231 5 -113 16 -138 93 -215 46 -46 55 -60 55 -90 0 -20 -1 -37 -1
-38 -1 -2 7 -21 19 -43 24 -47 71 -96 144 -150 64 -46 245 -253 232 -264 -5
-5 -47 -23 -94 -41 -144 -55 -161 -68 -238 -185 -26 -38 -51 -77 -57 -85 -5
-9 -19 -30 -30 -48 -22 -36 -35 -43 -187 -102 -113 -44 -115 -44 -233 -17 -33
8 -69 13 -80 12 -48 -4 -100 -18 -124 -32 -38 -24 -131 -115 -131 -129 0 -7
-11 -21 -24 -31 -22 -18 -48 -20 -363 -22 -1610 -14 -3694 6 -4723 44 -74 3
-200 7 -280 10 -286 10 -315 16 -324 64 -3 14 -4 62 -2 106 2 44 7 172 11 285
3 113 8 250 10 305 4 102 11 306 20 565 3 80 7 204 10 275 5 122 7 196 20 570
6 199 15 444 20 580 3 61 7 184 10 275 12 372 16 424 28 438 14 17 65 42 447
216 151 69 280 124 285 122 6 -1 11 -44 12 -95z"/>
<path d="M1959 4420 c-5 -88 -3 -1859 2 -1870 6 -13 47 -15 286 -13 153 0 284
2 291 2 9 1 12 77 12 344 l0 344 213 1 c216 1 230 2 352 26 88 18 214 88 284
157 115 113 162 225 167 394 5 165 -34 288 -128 402 -86 103 -219 182 -338
199 -19 3 -42 7 -50 9 -51 14 -188 18 -612 19 -421 1 -478 0 -479 -14z m899
-432 c89 -24 138 -94 129 -185 -13 -126 -100 -169 -342 -168 l-100 0 -3 183
-2 183 141 -2 c77 0 157 -6 177 -11z"/>
<path d="M4035 4250 c-31 -102 -63 -202 -71 -223 -7 -20 -14 -40 -14 -45 -1
-8 -41 -140 -110 -362 -92 -296 -110 -355 -111 -365 -1 -5 -6 -21 -11 -35 -27
-70 -208 -673 -204 -678 8 -7 434 -8 454 -1 13 5 33 59 72 188 l54 181 254 -2
255 -3 49 -175 c27 -96 55 -179 62 -185 13 -10 571 -13 582 -3 3 3 -27 109
-66 234 -40 126 -82 263 -95 304 -20 63 -221 704 -327 1040 -16 52 -43 140
-60 195 -17 55 -35 104 -40 110 -5 6 -126 10 -313 10 l-303 0 -57 -185z m329
-443 c5 -21 72 -263 115 -409 l19 -67 -140 -3 c-77 -2 -145 0 -150 3 -10 6 37
191 107 425 14 45 25 90 26 100 0 16 2 15 10 -4 5 -13 11 -33 13 -45z"/>
</g>
</svg>
