<?xml version="1.0" standalone="no"?>
<!DOCTYPE svg PUBLIC "-//W3C//DTD SVG 20010904//EN"
 "http://www.w3.org/TR/2001/REC-SVG-20010904/DTD/svg10.dtd">
<svg version="1.0" xmlns="http://www.w3.org/2000/svg"
 width="750.000000pt" height="750.000000pt" viewBox="0 0 750.000000 750.000000"
 preserveAspectRatio="xMidYMid meet">
<metadata>
Created by potrace 1.14, written by Peter Selinger 2001-2017
</metadata>
<g transform="translate(0.000000,750.000000) scale(0.100000,-0.100000)"
fill="#000000" stroke="none">
<path d="M3509 7496 c-2 -2 -42 -6 -89 -10 -47 -4 -96 -8 -110 -10 -14 -3 -52
-7 -85 -11 -32 -4 -62 -8 -65 -10 -3 -2 -26 -6 -50 -9 -39 -5 -245 -48 -290
-61 -8 -2 -49 -13 -90 -24 -408 -110 -853 -329 -1209 -596 -52 -38 -107 -80
-124 -92 -128 -94 -429 -396 -570 -573 -91 -113 -235 -315 -272 -382 -5 -9
-30 -50 -53 -90 -184 -308 -374 -810 -428 -1128 -3 -14 -9 -47 -14 -75 -12
-65 -18 -98 -26 -154 -3 -25 -7 -56 -9 -69 -27 -173 -27 -742 0 -903 2 -13 11
-73 20 -133 63 -434 243 -937 473 -1321 197 -329 468 -660 722 -882 47 -41 96
-85 110 -97 90 -83 380 -284 546 -379 286 -163 653 -309 964 -383 79 -18 256
-53 299 -59 30 -4 63 -9 75 -11 12 -2 46 -7 76 -10 30 -3 69 -7 85 -10 54 -9
578 -12 660 -3 44 4 107 10 140 14 33 3 67 7 75 10 8 2 37 6 65 10 42 5 110
18 224 41 182 37 464 128 666 214 287 122 579 295 835 494 126 99 151 121 313
276 330 317 636 759 816 1180 18 41 38 89 45 105 52 120 154 451 182 590 2 11
8 43 14 70 5 28 12 67 16 89 3 21 7 47 9 58 3 11 7 46 11 77 3 31 8 65 10 76
19 101 26 566 11 759 -9 123 -31 280 -58 411 -12 55 -22 107 -24 115 -41 208
-157 533 -280 785 -190 391 -415 706 -725 1015 -494 495 -1093 834 -1760 995
-84 20 -249 53 -305 61 -27 4 -58 8 -67 10 -9 1 -48 6 -85 9 -37 4 -77 9 -88
12 -23 6 -580 14 -586 9z"/>
</g>
</svg>
